#N canvas 780 29 784 802 10;
#X declare -lib mrpeach;
#X obj 87 79 import mrpeach;
#X obj 507 144 unpackOSC;
#X obj 507 204 print;
#X obj 507 81 udpreceive 30000;
#X msg 54 118 connect localhost 31000;
#X obj 84 419 udpsend;
#X obj 36 64 bng 15 250 50 0 empty empty empty 17 7 0 10 -262144 -1
-1;
#X obj 263 183 adc~;
#X obj 266 239 env~;
#X obj 276 283 - 100;
#X obj 284 387 vu 15 120 empty empty -1 -8 0 10 -66577 -1 1 0;
#X obj 549 272 output~;
#X obj 160 360 packOSC;
#X msg 115 175 disconnect;
#X obj 277 348 gate;
#X obj 258 314 > -35;
#X msg 123 311 send /test \$1#hej;
#X connect 1 0 2 0;
#X connect 3 0 1 0;
#X connect 4 0 5 0;
#X connect 6 0 4 0;
#X connect 7 0 8 0;
#X connect 7 1 8 0;
#X connect 8 0 9 0;
#X connect 9 0 16 0;
#X connect 9 0 14 1;
#X connect 9 0 15 0;
#X connect 12 0 5 0;
#X connect 13 0 5 0;
#X connect 14 0 10 0;
#X connect 15 0 14 0;
#X connect 16 0 12 0;
