#N canvas 349 364 684 526 10;
#X obj 44 257 osc~ 440;
#X obj 134 99 netreceive 32000;
#X msg 96 142;
#X obj 44 313 *~;
#X obj 40 437 dac~;
#X msg 139 330 0;
#X obj 179 298 loadbang;
#X msg 191 256 0.5;
#X obj 245 211 bng 15 250 50 0 empty sine_on empty 17 7 0 10 -262144
-1 -1;
#X text 288 203 To hear the sine wave \, send a bang with send id "sine_on"
via tcp. Libpd will handle this internally once deployed on iOS and
Android.;
#X obj 253 315 bng 15 250 50 0 empty sine_off empty 17 7 0 10 -262144
-1 -1;
#X text 290 315 You can turn off the sound by sending a bang to "sine_off".
;
#X floatatom 225 391 5 0 1 0 - volume -;
#X text 282 388 Alternatively \, send a float to receiver "volume"
in the range 0-1 to define volume.;
#X text 15 232 Sine Wave Generator;
#X text 254 99 TCP Kalimba network receiver (no more wires necessary!)
;
#X text 228 13 Kalimba Sinewave Test;
#X text 49 290 Volume;
#X connect 0 0 3 0;
#X connect 1 0 2 0;
#X connect 3 0 4 0;
#X connect 3 0 4 1;
#X connect 5 0 3 1;
#X connect 6 0 5 0;
#X connect 7 0 3 1;
#X connect 8 0 7 0;
#X connect 10 0 5 0;
#X connect 12 0 3 1;
