#N canvas 419 32 599 461 10;
#X obj -25 14 gemhead;
#X obj -13 295 circle;
#X obj -14 202 translateXYZ;
#X obj -25 46 color 1 0 0;
#N canvas 370 107 910 551 microtrigger 0;
#X obj 158 27 adc~;
#X obj 257 173 env~;
#X obj 141 207 - 100;
#X obj 74 484 outlet;
#X obj 13 431 r begin;
#X obj 225 301 vu 15 120 empty empty -1 -8 0 10 -66577 -1 1 0;
#X floatatom 386 338 5 0 0 0 - - -;
#X obj 166 135 hip~ 100;
#X obj 169 80 hip~ 100;
#X obj 286 125 *~ 1.5;
#X msg 38 465 0.1;
#X text 373 472 pfeifen: 75 - 105;
#X obj 363 442 outlet;
#X text 378 487 stimme: 40 - 70;
#X obj 317 299 send loud;
#X obj 490 32 inlet;
#X obj 490 54 > 0;
#X obj 442 163 line;
#X obj 479 81 sel 1 0;
#X obj 168 54 lop~ 3000;
#X obj 167 105 lop~ 3000;
#X obj 403 370 s bitch;
#X obj 399 302 sel 0;
#X obj 356 232 fiddle~ 4096 1;
#X obj 448 230 fiddle~ 256 1;
#X msg 440 137 1 300;
#X msg 490 137 0.1 300;
#X connect 0 0 19 0;
#X connect 0 1 19 0;
#X connect 1 0 2 0;
#X connect 2 0 5 0;
#X connect 2 0 14 0;
#X connect 4 0 10 0;
#X connect 6 0 12 0;
#X connect 6 0 21 0;
#X connect 7 0 9 0;
#X connect 8 0 20 0;
#X connect 9 0 1 0;
#X connect 9 0 23 0;
#X connect 9 0 24 0;
#X connect 10 0 3 0;
#X connect 15 0 16 0;
#X connect 16 0 18 0;
#X connect 17 0 3 0;
#X connect 18 0 25 0;
#X connect 18 1 26 0;
#X connect 19 0 8 0;
#X connect 20 0 7 0;
#X connect 22 1 6 0;
#X connect 23 0 22 0;
#X connect 24 0 22 0;
#X connect 25 0 17 0;
#X connect 26 0 17 0;
#X restore 118 212 pd microtrigger;
#N canvas 569 426 625 315 windowcreation 0;
#X obj 163 259 gemwin;
#X msg 94 107 create;
#X msg 178 105 destroy;
#X obj 199 134 tgl 15 0 empty empty empty 17 7 0 10 -262144 -1 -1 1
1;
#X obj 159 8 inlet;
#X obj 162 33 sel 0 1;
#X msg 239 74 0;
#X msg 195 76 1;
#X obj 88 57 t b b b;
#X obj 38 164 s begin;
#X msg 246 146 border \$1;
#X obj 245 128 tgl 15 1 empty empty empty 0 -6 0 10 -262144 -1 -1 1
1;
#X msg 257 212 color 0.5 0.5 0.5;
#X connect 1 0 0 0;
#X connect 2 0 0 0;
#X connect 3 0 0 0;
#X connect 4 0 5 0;
#X connect 5 0 2 0;
#X connect 5 0 6 0;
#X connect 5 1 8 0;
#X connect 6 0 3 0;
#X connect 7 0 3 0;
#X connect 8 0 9 0;
#X connect 8 1 7 0;
#X connect 8 2 1 0;
#X connect 10 0 0 0;
#X connect 11 0 10 0;
#X connect 12 0 0 0;
#X restore 407 56 pd windowcreation;
#X obj 403 22 tgl 15 0 empty empty empty 17 7 0 10 -262144 -1 -1 1
1;
#X obj 435 387 output~;
#N canvas 545 304 529 358 control 0;
#X obj 69 59 route 119 115 97 100;
#X text 441 178 w=119 \; s=115 \; a=97 \; d=100;
#X msg -33 173 0.05;
#X obj 25 252 + 0;
#X floatatom 34 290 5 0 0 0 - - -;
#X msg 114 162 0.05;
#X obj 110 190 * -1;
#X msg 216 193 0.05;
#X msg 334 186 0.05;
#X obj 330 214 * -1;
#X obj 223 256 + 0;
#X floatatom 220 288 5 0 0 0 - - -;
#X obj 29 321 outlet;
#X obj 213 322 outlet;
#X text 13 317 Y;
#X text 276 315 X;
#X obj 342 75 loadbang;
#X obj 86 14 key;
#X obj 267 13 inlet;
#X obj 35 103 gate 2;
#X obj 89 104 gate 2;
#X obj 133 104 gate 2;
#X obj 185 106 gate 2;
#X floatatom 244 78 5 0 0 0 - - -;
#X obj 43 203 line;
#X msg 339 102 1;
#X obj 155 194 line;
#X obj 134 218 * -1;
#X obj 261 240 line;
#X obj 375 214 line;
#X obj 358 242 * -1;
#X obj 265 39 > 0;
#X obj 286 67 + 1;
#X msg 53 158 0.05 800;
#X msg 159 157 0.05 800;
#X msg 265 202 0.05 800;
#X msg 376 185 0.05 800;
#X connect 0 0 19 1;
#X connect 0 1 20 1;
#X connect 0 2 21 1;
#X connect 0 3 22 1;
#X connect 2 0 3 0;
#X connect 3 0 4 0;
#X connect 4 0 3 1;
#X connect 4 0 12 0;
#X connect 5 0 6 0;
#X connect 6 0 3 0;
#X connect 7 0 10 0;
#X connect 8 0 9 0;
#X connect 9 0 10 0;
#X connect 10 0 11 0;
#X connect 11 0 10 1;
#X connect 11 0 13 0;
#X connect 16 0 25 0;
#X connect 17 0 0 0;
#X connect 18 0 31 0;
#X connect 19 0 2 0;
#X connect 19 1 33 0;
#X connect 20 0 5 0;
#X connect 20 1 34 0;
#X connect 21 0 8 0;
#X connect 21 1 36 0;
#X connect 22 0 7 0;
#X connect 22 1 35 0;
#X connect 23 0 19 0;
#X connect 23 0 20 0;
#X connect 23 0 21 0;
#X connect 23 0 22 0;
#X connect 24 0 3 0;
#X connect 25 0 4 0;
#X connect 25 0 11 0;
#X connect 26 0 27 0;
#X connect 27 0 3 0;
#X connect 28 0 10 0;
#X connect 29 0 30 0;
#X connect 30 0 10 0;
#X connect 31 0 32 0;
#X connect 32 0 23 0;
#X connect 33 0 24 0;
#X connect 34 0 26 0;
#X connect 35 0 28 0;
#X connect 36 0 29 0;
#X restore 13 135 pd control normal;
#X text 224 206 input analisation;
#N canvas 597 102 946 520 whistling 0;
#X obj -71 219 gemhead;
#X obj -71 248 color 0 1 0;
#X obj -74 309 translateXYZ 3 1 0;
#X obj 182 4 r loud;
#X obj 178 26 t b f;
#X obj -52 18 inlet;
#X obj 50 219 gemhead;
#X obj 215 221 gemhead;
#X obj 367 220 gemhead;
#X obj 50 248 color 0 0 1;
#X obj 214 250 color 1 1 0;
#X obj 367 248 color 1 1 1;
#X obj -78 455 triangle 0.05;
#X obj 51 454 triangle 0.05;
#X obj 209 466 triangle 0.05;
#X obj 382 460 triangle 0.05;
#X obj 47 360 translateXYZ 2.5 1.3 0;
#X obj 200 360 translateXYZ 2.8 1.7 0;
#X obj 376 357 translateXYZ 2.9 1.1 0;
#X obj -38 130 > 0;
#X obj -15 156 sel 1 0;
#X obj -43 419 line;
#X msg -8 379 0 250;
#X msg -65 377 0.05 250;
#X obj 126 426 line;
#X msg 161 386 0 250;
#X msg 104 384 0.05 250;
#X obj 294 432 line;
#X msg 329 392 0 250;
#X msg 272 390 0.05 250;
#X obj 440 431 line;
#X msg 475 391 0 250;
#X msg 418 389 0.05 250;
#X obj 569 223 gemhead;
#X obj 549 463 triangle 0.05;
#X obj 607 434 line;
#X msg 642 394 0 250;
#X msg 585 392 0.05 250;
#X obj 543 361 translateXYZ 3.2 0.9 0;
#X obj 569 251 color 0.5 0.7 0.1;
#X obj 690 224 gemhead;
#X obj 705 464 triangle 0.05;
#X obj 763 435 line;
#X msg 798 395 0 250;
#X msg 741 393 0.05 250;
#X obj 700 362 translateXYZ 2 1.06 0;
#X obj 690 252 color 0.3 0.1 0.3;
#N canvas 529 22 751 469 equalvoice2 0;
#X obj 224 23 inlet;
#X obj 374 424 outlet;
#X text 300 30 receives pitches of a certain ambitus (in this case
range of a singing voice);
#X obj 225 188 sel 0;
#X obj 319 187 loadbang;
#X obj 298 120 f;
#X obj 233 315 f;
#X obj 314 274 t b;
#X obj 212 54 sel 0;
#X msg 136 312 0;
#X obj 189 264 t b;
#X obj 104 191 t b;
#X obj 125 240 counter 15;
#X msg 390 383 0;
#X obj 260 251 counter 15;
#X obj 164 151 expr if($f1<=$f2+0.8&&$f1>=$f2-0.8 \, $f1 \, 0);
#X connect 0 0 8 0;
#X connect 3 0 12 0;
#X connect 3 1 6 1;
#X connect 3 1 14 0;
#X connect 4 0 12 2;
#X connect 4 0 14 2;
#X connect 5 0 15 1;
#X connect 6 0 1 0;
#X connect 7 0 6 0;
#X connect 8 0 13 0;
#X connect 8 1 5 1;
#X connect 8 1 15 0;
#X connect 9 0 6 0;
#X connect 10 0 9 0;
#X connect 10 0 5 0;
#X connect 10 0 14 2;
#X connect 11 0 12 2;
#X connect 12 3 10 0;
#X connect 13 0 1 0;
#X connect 14 0 11 0;
#X connect 14 3 7 0;
#X connect 15 0 3 0;
#X restore -40 101 pd equalvoice2;
#X obj -44 61 expr if($f1 >= 75 && $f1<= 105 && (($f2>-38) && ($f2<0))
\, $f1 \, 0);
#X connect 0 0 1 0;
#X connect 1 0 2 0;
#X connect 2 0 12 0;
#X connect 3 0 4 0;
#X connect 4 0 48 0;
#X connect 4 1 48 1;
#X connect 5 0 48 0;
#X connect 6 0 9 0;
#X connect 7 0 10 0;
#X connect 8 0 11 0;
#X connect 9 0 16 0;
#X connect 10 0 17 0;
#X connect 11 0 18 0;
#X connect 16 0 13 0;
#X connect 17 0 14 0;
#X connect 18 0 15 0;
#X connect 19 0 20 0;
#X connect 20 0 23 0;
#X connect 20 0 26 0;
#X connect 20 0 29 0;
#X connect 20 0 32 0;
#X connect 20 0 37 0;
#X connect 20 0 44 0;
#X connect 20 1 22 0;
#X connect 20 1 25 0;
#X connect 20 1 28 0;
#X connect 20 1 31 0;
#X connect 20 1 36 0;
#X connect 20 1 43 0;
#X connect 21 0 12 1;
#X connect 22 0 21 0;
#X connect 23 0 21 0;
#X connect 24 0 13 1;
#X connect 25 0 24 0;
#X connect 26 0 24 0;
#X connect 27 0 14 1;
#X connect 28 0 27 0;
#X connect 29 0 27 0;
#X connect 30 0 15 1;
#X connect 31 0 30 0;
#X connect 32 0 30 0;
#X connect 33 0 39 0;
#X connect 35 0 34 1;
#X connect 36 0 35 0;
#X connect 37 0 35 0;
#X connect 38 0 34 0;
#X connect 39 0 38 0;
#X connect 40 0 46 0;
#X connect 42 0 41 1;
#X connect 43 0 42 0;
#X connect 44 0 42 0;
#X connect 45 0 41 0;
#X connect 46 0 45 0;
#X connect 47 0 19 0;
#X connect 48 0 47 0;
#X restore 282 252 pd whistling;
#X obj 14 352 gemlist_info;
#X obj 81 386 s info;
#N canvas 470 395 462 320 singing 1;
#X obj 52 20 inlet;
#X obj 61 230 outlet;
#N canvas 538 283 751 469 equalvoice 1;
#X obj 224 23 inlet;
#X obj 374 424 outlet;
#X text 300 30 receives pitches of a certain ambitus (in this case
range of a singing voice);
#X obj 225 188 sel 0;
#X obj 319 187 loadbang;
#X obj 298 120 f;
#X obj 233 315 f;
#X obj 314 274 t b;
#X obj 212 54 sel 0;
#X msg 136 312 0;
#X obj 189 264 t b;
#X obj 104 191 t b;
#X obj 164 151 expr if($f1<=$f2+0.5&&$f1>=$f2-0.5 \, $f1 \, 0);
#X msg 390 383 0;
#X obj 125 240 counter 60;
#X obj 260 250 counter 5;
#X connect 0 0 8 0;
#X connect 3 0 14 0;
#X connect 3 1 6 1;
#X connect 3 1 15 0;
#X connect 4 0 14 2;
#X connect 4 0 15 2;
#X connect 5 0 12 1;
#X connect 6 0 1 0;
#X connect 7 0 6 0;
#X connect 8 0 13 0;
#X connect 8 0 15 2;
#X connect 8 1 5 1;
#X connect 8 1 12 0;
#X connect 9 0 6 0;
#X connect 10 0 9 0;
#X connect 10 0 5 0;
#X connect 10 0 15 2;
#X connect 11 0 14 2;
#X connect 12 0 3 0;
#X connect 13 0 1 0;
#X connect 14 3 10 0;
#X connect 15 0 11 0;
#X connect 15 3 7 0;
#X restore 50 192 pd equalvoice;
#X text 92 16 receives pitch from fiddle without 0 and only over a
certain loudness;
#X obj 274 80 r loud;
#X obj 270 102 t b f;
#X obj 47 136 expr if($f1 >= 40 && $f1<= 70 && (($f2>-25) && ($f2<0))
\, $f1 \, 0);
#X connect 0 0 6 0;
#X connect 2 0 1 0;
#X connect 4 0 5 0;
#X connect 5 0 6 0;
#X connect 5 1 6 1;
#X connect 6 0 2 0;
#X restore 151 273 pd singing;
#N canvas 526 253 817 501 shushing 0;
#X obj 209 192 sum;
#X obj 213 137 zl nth 2;
#X floatatom 209 261 5 0 0 0 - - -;
#X obj 208 241 change;
#X obj 213 167 zl group 40;
#X obj 96 110 fiddle~ 2048 1 40 40;
#X obj 88 69 adc~;
#X obj 209 221 > 40000;
#X obj 14 164 gemhead;
#X obj 14 248 translateXYZ -2 -1 0;
#X obj 19 215 color 0 1 0;
#X obj 91 292 sel 1;
#X msg 72 335 0;
#X obj 124 330 del 2000;
#X obj 18 390 square 0.24;
#X msg 117 363 0.24;
#X msg 173 56 amp-range 80 0;
#X connect 0 0 7 0;
#X connect 1 0 4 0;
#X connect 3 0 2 0;
#X connect 3 0 11 0;
#X connect 4 0 0 0;
#X connect 5 4 1 0;
#X connect 6 0 5 0;
#X connect 6 1 5 0;
#X connect 7 0 3 0;
#X connect 8 0 10 0;
#X connect 9 0 14 0;
#X connect 10 0 9 0;
#X connect 11 0 12 0;
#X connect 11 0 13 0;
#X connect 12 0 14 1;
#X connect 13 0 15 0;
#X connect 15 0 14 1;
#X connect 16 0 5 0;
#X restore 232 311 pd shushing;
#N canvas 163 239 613 483 shouting 0;
#X obj -15 24 gemhead;
#X obj -4 212 translateXYZ;
#X obj -15 56 color 1 0 0;
#X obj 24 143 r info;
#X obj 26 170 unpack 0 0 0;
#X obj 5 291 circle 0.1;
#X obj 168 37 adc~;
#X obj 102 338 sel 1;
#X obj 111 455 line;
#X obj 96 360 t b b b;
#X msg 157 394 3.5;
#X obj 166 183 env~;
#X floatatom 122 278 5 0 0 0 - - -;
#X obj 151 217 - 100;
#X msg 116 399 1000;
#X obj 235 311 vu 15 120 empty empty -1 -8 0 10 -66577 -1 1 0;
#X obj 176 145 hip~ 100;
#X obj 178 115 lop~ 5000;
#X obj 179 90 hip~ 100;
#X obj 178 64 lop~ 5000;
#X msg 84 398 0.1;
#X obj 124 299 > 7;
#X connect 0 0 2 0;
#X connect 1 0 5 0;
#X connect 2 0 1 0;
#X connect 3 0 4 0;
#X connect 4 0 1 1;
#X connect 4 1 1 2;
#X connect 6 0 19 0;
#X connect 6 1 19 0;
#X connect 7 0 9 0;
#X connect 8 0 5 1;
#X connect 9 0 20 0;
#X connect 9 1 14 0;
#X connect 9 2 10 0;
#X connect 10 0 8 0;
#X connect 11 0 13 0;
#X connect 12 0 21 0;
#X connect 13 0 12 0;
#X connect 13 0 15 0;
#X connect 14 0 8 1;
#X connect 16 0 11 0;
#X connect 17 0 16 0;
#X connect 18 0 17 0;
#X connect 19 0 18 0;
#X connect 20 0 8 0;
#X connect 21 0 7 0;
#X restore 339 305 pd shouting;
#X connect 0 0 3 0;
#X connect 1 0 11 0;
#X connect 2 0 1 0;
#X connect 3 0 2 0;
#X connect 4 0 1 1;
#X connect 4 1 13 0;
#X connect 4 1 10 0;
#X connect 6 0 5 0;
#X connect 8 0 2 2;
#X connect 8 1 2 1;
#X connect 11 4 12 0;
#X connect 13 0 8 0;
#X connect 13 0 4 0;
