#N canvas 543 239 599 461 10;
#X obj -25 14 gemhead;
#X obj 10 302 circle;
#X obj -14 202 translateXYZ;
#X obj -25 46 color 1 0 0;
#N canvas 578 216 702 532 microtrigger 0;
#X obj 158 27 adc~;
#X obj 257 173 env~;
#X obj 141 207 - 100;
#X obj 74 484 outlet;
#X obj 13 431 r begin;
#X obj 225 301 vu 15 120 empty empty -1 -8 0 10 -66577 -1 1 0;
#X floatatom 389 311 5 0 0 0 - - -;
#X obj 388 276 gate;
#X obj 361 206 fiddle~ 1024;
#X obj 166 135 hip~ 100;
#X obj 169 80 hip~ 100;
#X obj 286 125 *~ 1.5;
#X msg 38 465 0.1;
#X text 373 472 pfeifen: 75 - 105;
#X obj 323 252 > -20;
#X obj 363 442 outlet;
#X text 378 487 stimme: 40 - 70;
#X obj 317 299 send loud;
#X obj 490 32 inlet;
#X obj 490 54 > 0;
#X obj 442 163 line;
#X obj 479 81 sel 1 0;
#X msg 440 137 1 500;
#X msg 490 137 0.1 500;
#X text 492 302 task: recognize if someone is singing or speaking with
timer;
#X obj 168 54 lop~ 3000;
#X obj 167 105 lop~ 3000;
#X connect 0 0 25 0;
#X connect 0 1 25 0;
#X connect 1 0 2 0;
#X connect 2 0 5 0;
#X connect 2 0 14 0;
#X connect 2 0 17 0;
#X connect 4 0 12 0;
#X connect 6 0 15 0;
#X connect 7 0 6 0;
#X connect 8 2 7 1;
#X connect 9 0 11 0;
#X connect 10 0 26 0;
#X connect 11 0 8 0;
#X connect 11 0 1 0;
#X connect 12 0 3 0;
#X connect 14 0 7 0;
#X connect 18 0 19 0;
#X connect 19 0 21 0;
#X connect 20 0 3 0;
#X connect 21 0 22 0;
#X connect 21 1 23 0;
#X connect 22 0 20 0;
#X connect 23 0 20 0;
#X connect 25 0 10 0;
#X connect 26 0 9 0;
#X restore 114 191 pd microtrigger;
#N canvas 504 379 450 300 windowcreation 0;
#X obj 147 165 gemwin;
#X msg 94 107 create;
#X msg 178 105 destroy;
#X obj 199 134 tgl 15 0 empty empty empty 17 7 0 10 -262144 -1 -1 0
1;
#X obj 159 8 inlet;
#X obj 162 33 sel 0 1;
#X msg 239 74 0;
#X msg 195 76 1;
#X obj 88 57 t b b b;
#X obj 38 164 s begin;
#X connect 1 0 0 0;
#X connect 2 0 0 0;
#X connect 3 0 0 0;
#X connect 4 0 5 0;
#X connect 5 0 2 0;
#X connect 5 0 6 0;
#X connect 5 1 8 0;
#X connect 6 0 3 0;
#X connect 7 0 3 0;
#X connect 8 0 9 0;
#X connect 8 1 7 0;
#X connect 8 2 1 0;
#X restore 407 56 pd windowcreation;
#X obj 403 22 tgl 15 0 empty empty empty 17 7 0 10 -262144 -1 -1 0
1;
#X obj 471 390 output~;
#N canvas 667 324 450 300 floating 0;
#X obj 71 26 inlet;
#X floatatom 69 182 5 0 0 0 - - -;
#X floatatom 3 46 5 0 0 0 - - -;
#X obj 142 28 inlet;
#X obj 298 74 r loud;
#X obj 294 96 t b f;
#X obj 61 230 outlet;
#X obj 72 132 expr if($f1 >= 40 && $f1<= 70 && (($f2>-7) && ($f2<0))
\, $f1 \, 0);
#X connect 0 0 7 0;
#X connect 1 0 6 0;
#X connect 2 0 7 0;
#X connect 4 0 5 0;
#X connect 5 0 7 0;
#X connect 5 1 7 1;
#X connect 7 0 1 0;
#X restore 115 380 pd floating;
#N canvas 243 373 529 358 control 0;
#X obj 69 59 route 119 115 97 100;
#X text 441 178 w=119 \; s=115 \; a=97 \; d=100;
#X msg 4 156 0.05;
#X obj 25 252 + 0;
#X floatatom 34 290 5 0 0 0 - - -;
#X msg 114 162 0.05;
#X obj 110 190 * -1;
#X msg 216 193 0.05;
#X msg 334 186 0.05;
#X obj 330 214 * -1;
#X obj 223 256 + 0;
#X floatatom 220 288 5 0 0 0 - - -;
#X obj 29 321 outlet;
#X obj 213 322 outlet;
#X text 13 317 Y;
#X text 276 315 X;
#X obj 342 75 loadbang;
#X obj 86 14 key;
#X obj 267 13 inlet;
#X obj 46 104 gate 2;
#X obj 89 104 gate 2;
#X obj 133 104 gate 2;
#X obj 185 106 gate 2;
#X floatatom 244 78 5 0 0 0 - - -;
#X obj 53 193 line;
#X msg 339 102 1;
#X obj 155 194 line;
#X obj 134 218 * -1;
#X obj 261 240 line;
#X obj 375 214 line;
#X obj 358 242 * -1;
#X obj 265 39 > 0;
#X obj 286 67 + 1;
#X msg 56 154 0.05 800;
#X msg 159 157 0.05 800;
#X msg 265 203 0.05 800;
#X msg 376 185 0.05 800;
#X connect 0 0 19 1;
#X connect 0 1 20 1;
#X connect 0 2 21 1;
#X connect 0 3 22 1;
#X connect 2 0 3 0;
#X connect 3 0 4 0;
#X connect 4 0 3 1;
#X connect 4 0 12 0;
#X connect 5 0 6 0;
#X connect 6 0 3 0;
#X connect 7 0 10 0;
#X connect 8 0 9 0;
#X connect 9 0 10 0;
#X connect 10 0 11 0;
#X connect 11 0 10 1;
#X connect 11 0 13 0;
#X connect 16 0 25 0;
#X connect 17 0 0 0;
#X connect 18 0 31 0;
#X connect 19 0 2 0;
#X connect 19 1 33 0;
#X connect 20 0 5 0;
#X connect 20 1 34 0;
#X connect 21 0 8 0;
#X connect 21 1 36 0;
#X connect 22 0 7 0;
#X connect 22 1 35 0;
#X connect 23 0 19 0;
#X connect 23 0 20 0;
#X connect 23 0 21 0;
#X connect 23 0 22 0;
#X connect 24 0 3 0;
#X connect 25 0 4 0;
#X connect 25 0 11 0;
#X connect 26 0 27 0;
#X connect 27 0 3 0;
#X connect 28 0 10 0;
#X connect 29 0 30 0;
#X connect 30 0 10 0;
#X connect 31 0 32 0;
#X connect 32 0 23 0;
#X connect 33 0 24 0;
#X connect 34 0 26 0;
#X connect 35 0 28 0;
#X connect 36 0 29 0;
#X restore 13 135 pd control normal;
#X obj 4 334 gemlist_info;
#X obj 63 374 s info;
#N canvas 99 22 1115 701 otherobjects 0;
#X obj -71 219 gemhead;
#X obj -71 248 color 0 1 0;
#X obj 397 94 / 100;
#X obj 370 5 bng 15 250 50 0 empty empty empty 17 7 0 10 -262144 -1
-1;
#X floatatom 397 131 5 0 0 0 - - -;
#X obj 391 62 random 3;
#X obj -74 309 translateXYZ 3 1 0;
#X obj 182 4 r loud;
#X obj 178 26 t b f;
#X floatatom -39 102 5 0 0 0 - - -;
#X obj -52 18 inlet;
#X obj 50 219 gemhead;
#X obj 215 221 gemhead;
#X obj 367 220 gemhead;
#X obj 50 248 color 0 0 1;
#X obj 214 250 color 1 1 0;
#X obj 367 248 color 1 1 1;
#X obj -78 455 triangle 0.05;
#X obj 51 454 triangle 0.05;
#X obj 209 466 triangle 0.05;
#X obj 382 460 triangle 0.05;
#X obj 47 360 translateXYZ 2.5 1.3 0;
#X obj 200 360 translateXYZ 2.8 1.7 0;
#X obj 376 357 translateXYZ 2.9 1.1 0;
#X obj -38 130 > 0;
#X obj -15 156 sel 1 0;
#X obj -44 61 expr if($f1 >= 75 && $f1<= 105 && (($f2>-25) && ($f2<0))
\, $f1 \, 0);
#X obj -43 419 line;
#X msg -8 379 0 250;
#X msg -65 377 0.05 250;
#X obj 126 426 line;
#X msg 161 386 0 250;
#X msg 104 384 0.05 250;
#X obj 294 432 line;
#X msg 329 392 0 250;
#X msg 272 390 0.05 250;
#X obj 440 431 line;
#X msg 475 391 0 250;
#X msg 418 389 0.05 250;
#X obj 534 223 gemhead;
#X obj 549 463 triangle 0.05;
#X obj 607 434 line;
#X msg 642 394 0 250;
#X msg 585 392 0.05 250;
#X obj 543 361 translateXYZ 3.2 0.9 0;
#X obj 534 251 color 0.5 0.7 0.1;
#X obj 690 224 gemhead;
#X obj 705 464 triangle 0.05;
#X obj 763 435 line;
#X msg 798 395 0 250;
#X msg 741 393 0.05 250;
#X obj 700 362 translateXYZ 2 1.06 0;
#X obj 690 252 color 0.3 0.1 0.3;
#X connect 0 0 1 0;
#X connect 1 0 6 0;
#X connect 2 0 4 0;
#X connect 3 0 5 0;
#X connect 5 0 2 0;
#X connect 6 0 17 0;
#X connect 7 0 8 0;
#X connect 8 0 26 0;
#X connect 8 1 26 1;
#X connect 9 0 24 0;
#X connect 10 0 26 0;
#X connect 11 0 14 0;
#X connect 12 0 15 0;
#X connect 13 0 16 0;
#X connect 14 0 21 0;
#X connect 15 0 22 0;
#X connect 16 0 23 0;
#X connect 21 0 18 0;
#X connect 22 0 19 0;
#X connect 23 0 20 0;
#X connect 24 0 25 0;
#X connect 25 0 29 0;
#X connect 25 0 32 0;
#X connect 25 0 35 0;
#X connect 25 0 38 0;
#X connect 25 0 43 0;
#X connect 25 0 50 0;
#X connect 25 1 28 0;
#X connect 25 1 31 0;
#X connect 25 1 34 0;
#X connect 25 1 37 0;
#X connect 25 1 42 0;
#X connect 25 1 49 0;
#X connect 26 0 9 0;
#X connect 27 0 17 1;
#X connect 28 0 27 0;
#X connect 29 0 27 0;
#X connect 30 0 18 1;
#X connect 31 0 30 0;
#X connect 32 0 30 0;
#X connect 33 0 19 1;
#X connect 34 0 33 0;
#X connect 35 0 33 0;
#X connect 36 0 20 1;
#X connect 37 0 36 0;
#X connect 38 0 36 0;
#X connect 39 0 45 0;
#X connect 41 0 40 1;
#X connect 42 0 41 0;
#X connect 43 0 41 0;
#X connect 44 0 40 0;
#X connect 45 0 44 0;
#X connect 46 0 52 0;
#X connect 48 0 47 1;
#X connect 49 0 48 0;
#X connect 50 0 48 0;
#X connect 51 0 47 0;
#X connect 52 0 51 0;
#X restore 251 277 pd otherobjects;
#N canvas 295 183 613 483 bam 0;
#X obj -15 24 gemhead;
#X obj -4 212 translateXYZ;
#X obj -15 56 color 1 0 0;
#X obj 24 143 r info;
#X obj 26 170 unpack 0 0 0;
#X obj 5 291 circle 0.1;
#X obj 168 37 adc~;
#X obj 102 338 sel 1;
#X obj 111 455 line;
#X obj 96 360 t b b b;
#X msg 157 394 3.5;
#X obj 166 183 env~;
#X floatatom 122 278 5 0 0 0 - - -;
#X obj 151 217 - 100;
#X msg 116 399 1000;
#X obj 235 311 vu 15 120 empty empty -1 -8 0 10 -66577 -1 1 0;
#X obj 176 145 hip~ 100;
#X obj 178 115 lop~ 5000;
#X obj 179 90 hip~ 100;
#X obj 178 64 lop~ 5000;
#X msg 84 398 0.1;
#X obj 124 299 > 7;
#X connect 0 0 2 0;
#X connect 1 0 5 0;
#X connect 2 0 1 0;
#X connect 3 0 4 0;
#X connect 4 0 1 1;
#X connect 4 1 1 2;
#X connect 6 0 19 0;
#X connect 6 1 19 0;
#X connect 7 0 9 0;
#X connect 8 0 5 1;
#X connect 9 0 20 0;
#X connect 9 1 14 0;
#X connect 9 2 10 0;
#X connect 10 0 8 0;
#X connect 11 0 13 0;
#X connect 12 0 21 0;
#X connect 13 0 12 0;
#X connect 13 0 15 0;
#X connect 14 0 8 1;
#X connect 16 0 11 0;
#X connect 17 0 16 0;
#X connect 18 0 17 0;
#X connect 19 0 18 0;
#X connect 20 0 8 0;
#X connect 21 0 7 0;
#X restore 87 37 pd bam;
#X connect 0 0 3 0;
#X connect 1 0 10 0;
#X connect 2 0 1 0;
#X connect 3 0 2 0;
#X connect 4 0 1 1;
#X connect 4 1 8 0;
#X connect 4 1 12 0;
#X connect 6 0 5 0;
#X connect 8 0 9 0;
#X connect 8 0 4 0;
#X connect 9 0 2 2;
#X connect 9 1 2 1;
#X connect 10 4 11 0;
