#N canvas 751 34 487 403 10;
#X declare -lib mrpeach;
#X obj 85 43 output~;
#N canvas 613 394 625 277 whistling 0;
#X obj 73 7 adc~;
#X obj 78 99 mtof;
#X obj 230 110 t b f;
#X obj 75 146 expr if($f1 > 750 && $f1 < 4500 && $f2>75 \, 1 \, 0)
;
#X obj 78 75 fiddle~ 2048 1;
#N canvas 184 87 1096 623 boredParticles 0;
#X obj -61 229 gemhead;
#X obj -61 258 color 0 1 0;
#X obj -64 319 translateXYZ 3 1 0;
#X obj 60 229 gemhead;
#X obj 225 231 gemhead;
#X obj 377 230 gemhead;
#X obj 60 258 color 0 0 1;
#X obj 224 260 color 1 1 0;
#X obj 377 258 color 1 1 1;
#X obj -68 465 triangle 0.05;
#X obj 61 464 triangle 0.05;
#X obj 219 476 triangle 0.05;
#X obj 392 470 triangle 0.05;
#X obj 57 370 translateXYZ 2.5 1.3 0;
#X obj 210 370 translateXYZ 2.8 1.7 0;
#X obj 386 367 translateXYZ 2.9 1.1 0;
#X obj 54 187 sel 1 0;
#X obj -33 429 line;
#X msg 2 389 0 250;
#X msg -55 387 0.05 250;
#X obj 136 436 line;
#X msg 171 396 0 250;
#X msg 114 394 0.05 250;
#X obj 304 442 line;
#X msg 339 402 0 250;
#X msg 282 400 0.05 250;
#X obj 450 441 line;
#X msg 485 401 0 250;
#X msg 428 399 0.05 250;
#X obj 579 233 gemhead;
#X obj 559 473 triangle 0.05;
#X obj 617 444 line;
#X msg 652 404 0 250;
#X msg 595 402 0.05 250;
#X obj 553 371 translateXYZ 3.2 0.9 0;
#X obj 579 261 color 0.5 0.7 0.1;
#X obj 700 234 gemhead;
#X obj 715 474 triangle 0.05;
#X obj 773 445 line;
#X msg 808 405 0 250;
#X msg 751 403 0.05 250;
#X obj 710 372 translateXYZ 2 1.06 0;
#X obj 700 262 color 0.3 0.1 0.3;
#X obj 53 147 inlet;
#X connect 0 0 1 0;
#X connect 1 0 2 0;
#X connect 2 0 9 0;
#X connect 3 0 6 0;
#X connect 4 0 7 0;
#X connect 5 0 8 0;
#X connect 6 0 13 0;
#X connect 7 0 14 0;
#X connect 8 0 15 0;
#X connect 13 0 10 0;
#X connect 14 0 11 0;
#X connect 15 0 12 0;
#X connect 16 0 19 0;
#X connect 16 0 22 0;
#X connect 16 0 25 0;
#X connect 16 0 28 0;
#X connect 16 0 33 0;
#X connect 16 0 40 0;
#X connect 16 1 18 0;
#X connect 16 1 21 0;
#X connect 16 1 24 0;
#X connect 16 1 27 0;
#X connect 16 1 32 0;
#X connect 16 1 39 0;
#X connect 17 0 9 1;
#X connect 18 0 17 0;
#X connect 19 0 17 0;
#X connect 20 0 10 1;
#X connect 21 0 20 0;
#X connect 22 0 20 0;
#X connect 23 0 11 1;
#X connect 24 0 23 0;
#X connect 25 0 23 0;
#X connect 26 0 12 1;
#X connect 27 0 26 0;
#X connect 28 0 26 0;
#X connect 29 0 35 0;
#X connect 31 0 30 1;
#X connect 32 0 31 0;
#X connect 33 0 31 0;
#X connect 34 0 30 0;
#X connect 35 0 34 0;
#X connect 36 0 42 0;
#X connect 38 0 37 1;
#X connect 39 0 38 0;
#X connect 40 0 38 0;
#X connect 41 0 37 0;
#X connect 42 0 41 0;
#X connect 43 0 16 0;
#X restore 68 212 pd boredParticles;
#X obj 85 180 s whistling;
#X connect 0 0 4 0;
#X connect 0 1 4 0;
#X connect 1 0 3 0;
#X connect 2 0 3 0;
#X connect 2 1 3 1;
#X connect 3 0 5 0;
#X connect 3 0 6 0;
#X connect 4 0 1 0;
#X connect 4 3 2 0;
#X restore -25 219 pd whistling;
#N canvas 463 137 817 501 shushing 0;
#X obj 88 69 adc~;
#X obj 14 164 gemhead;
#X obj 14 248 translateXYZ -2 -1 0;
#X obj 14 215 color 0 1 0;
#X msg 77 359 0;
#X obj 122 330 del 2000;
#X obj 14 391 square 0.24;
#X msg 122 374 0.24;
#X text 462 240 1800 - 5400 HZ;
#X obj 213 138 zl nth 1;
#X obj 96 109 fiddle~ 2048 1 20 20;
#X obj 258 170 unpack;
#X obj 291 190 rmstodb;
#X obj 252 215 gate;
#X obj 252 299 change;
#X obj 291 215 > 80;
#X obj 247 344 sel 1;
#X obj 252 240 expr if($f1>3500&&$f1<5400 \, 1 \, 0);
#X text 467 260 took it to 3500 cause of interference with whistling
;
#X obj 333 359 s shushing;
#X connect 0 0 10 0;
#X connect 0 1 10 0;
#X connect 1 0 3 0;
#X connect 2 0 6 0;
#X connect 3 0 2 0;
#X connect 4 0 6 1;
#X connect 5 0 7 0;
#X connect 7 0 6 1;
#X connect 9 1 11 0;
#X connect 10 4 9 0;
#X connect 11 0 13 1;
#X connect 11 1 12 0;
#X connect 12 0 15 0;
#X connect 13 0 17 0;
#X connect 14 0 16 0;
#X connect 15 0 13 0;
#X connect 16 0 4 0;
#X connect 16 0 5 0;
#X connect 17 0 14 0;
#X connect 17 0 19 0;
#X restore 121 219 pd shushing;
#N canvas 127 247 613 483 shouting 0;
#X obj -15 24 gemhead;
#X obj -14 154 translateXYZ;
#X obj -15 56 color 1 0 0;
#X obj 14 85 r info;
#X obj 16 112 unpack 0 0 0;
#X obj -21 204 circle 0.1;
#X obj 168 37 adc~;
#X obj 146 211 sel 1;
#X obj 155 328 line;
#X obj 140 233 t b b b;
#X msg 201 267 3.5;
#X obj 166 86 env~;
#X obj 167 118 - 100;
#X msg 160 272 1000;
#X msg 128 271 0.1;
#X obj 165 156 > 7;
#X obj 198 189 s shouting;
#X msg 215 133 7;
#X obj 215 111 loadbang;
#X obj 216 161 outlet;
#X obj 107 51 inlet;
#X obj 277 155 s anfang;
#X connect 0 0 2 0;
#X connect 1 0 5 0;
#X connect 2 0 1 0;
#X connect 3 0 4 0;
#X connect 4 0 1 1;
#X connect 4 1 1 2;
#X connect 6 0 11 0;
#X connect 6 1 11 0;
#X connect 7 0 9 0;
#X connect 8 0 5 1;
#X connect 9 0 14 0;
#X connect 9 1 13 0;
#X connect 9 2 10 0;
#X connect 10 0 8 0;
#X connect 11 0 12 0;
#X connect 12 0 15 0;
#X connect 13 0 8 1;
#X connect 14 0 8 0;
#X connect 15 0 7 0;
#X connect 15 0 16 0;
#X connect 17 0 15 1;
#X connect 17 0 19 0;
#X connect 17 0 21 0;
#X connect 18 0 17 0;
#X connect 20 0 15 1;
#X restore -25 194 pd shouting;
#N canvas 550 87 495 440 indoorPDgraphic 0;
#X obj -15 24 gemhead;
#X obj -4 212 translateXYZ;
#X obj -15 56 color 1 0 0;
#N canvas 506 363 529 358 control 0;
#X obj 69 59 route 119 115 97 100;
#X text 441 178 w=119 \; s=115 \; a=97 \; d=100;
#X msg -33 173 0.05;
#X obj 25 252 + 0;
#X floatatom 34 290 5 0 0 0 - - -;
#X msg 114 162 0.05;
#X obj 110 190 * -1;
#X msg 216 193 0.05;
#X msg 334 186 0.05;
#X obj 330 214 * -1;
#X obj 223 256 + 0;
#X floatatom 220 288 5 0 0 0 - - -;
#X obj 29 321 outlet;
#X obj 213 322 outlet;
#X text 13 317 Y;
#X text 276 315 X;
#X obj 342 75 loadbang;
#X obj 86 14 key;
#X obj 267 13 inlet;
#X obj 35 103 gate 2;
#X obj 89 104 gate 2;
#X obj 133 104 gate 2;
#X obj 185 106 gate 2;
#X floatatom 244 78 5 0 0 0 - - -;
#X obj 43 203 line;
#X msg 339 102 1;
#X obj 155 194 line;
#X obj 134 218 * -1;
#X obj 261 240 line;
#X obj 375 214 line;
#X obj 358 242 * -1;
#X obj 265 39 > 0;
#X obj 286 67 + 1;
#X msg 53 158 0.05 800;
#X msg 159 157 0.05 800;
#X msg 265 202 0.05 800;
#X msg 376 185 0.05 800;
#X connect 0 0 19 1;
#X connect 0 1 20 1;
#X connect 0 2 21 1;
#X connect 0 3 22 1;
#X connect 2 0 3 0;
#X connect 3 0 4 0;
#X connect 4 0 3 1;
#X connect 4 0 12 0;
#X connect 5 0 6 0;
#X connect 6 0 3 0;
#X connect 7 0 10 0;
#X connect 8 0 9 0;
#X connect 9 0 10 0;
#X connect 10 0 11 0;
#X connect 11 0 10 1;
#X connect 11 0 13 0;
#X connect 16 0 25 0;
#X connect 17 0 0 0;
#X connect 18 0 31 0;
#X connect 19 0 2 0;
#X connect 19 1 33 0;
#X connect 20 0 5 0;
#X connect 20 1 34 0;
#X connect 21 0 8 0;
#X connect 21 1 36 0;
#X connect 22 0 7 0;
#X connect 22 1 35 0;
#X connect 23 0 19 0;
#X connect 23 0 20 0;
#X connect 23 0 21 0;
#X connect 23 0 22 0;
#X connect 24 0 3 0;
#X connect 25 0 4 0;
#X connect 25 0 11 0;
#X connect 26 0 27 0;
#X connect 27 0 3 0;
#X connect 28 0 10 0;
#X connect 29 0 30 0;
#X connect 30 0 10 0;
#X connect 31 0 32 0;
#X connect 32 0 23 0;
#X connect 33 0 24 0;
#X connect 34 0 26 0;
#X connect 35 0 28 0;
#X connect 36 0 29 0;
#X restore 23 145 pd control normal;
#X obj 24 362 gemlist_info;
#X obj 91 396 s info;
#N canvas 569 426 625 315 windowcreation 0;
#X obj 163 259 gemwin;
#X msg 94 107 create;
#X msg 178 105 destroy;
#X obj 199 134 tgl 15 0 empty empty empty 17 7 0 10 -262144 -1 -1 1
1;
#X obj 159 8 inlet;
#X obj 162 33 sel 0 1;
#X msg 239 74 0;
#X msg 195 76 1;
#X obj 88 57 t b b b;
#X obj 38 164 s begin;
#X msg 246 146 border \$1;
#X obj 245 128 tgl 15 1 empty empty empty 0 -6 0 10 -262144 -1 -1 1
1;
#X msg 257 212 color 0.5 0.5 0.5;
#X connect 1 0 0 0;
#X connect 2 0 0 0;
#X connect 3 0 0 0;
#X connect 4 0 5 0;
#X connect 5 0 2 0;
#X connect 5 0 6 0;
#X connect 5 1 8 0;
#X connect 6 0 3 0;
#X connect 7 0 3 0;
#X connect 8 0 9 0;
#X connect 8 1 7 0;
#X connect 8 2 1 0;
#X connect 10 0 0 0;
#X connect 11 0 10 0;
#X connect 12 0 0 0;
#X restore 156 54 pd windowcreation;
#X obj 158 20 inlet;
#X obj 3 331 circle 0.1;
#X obj 46 114 r tone;
#X obj 91 217 > 0;
#X obj 91 245 sel 0 1;
#X obj 69 305 line;
#X msg 67 283 0.1 200;
#X msg 153 283 1 200;
#X connect 0 0 2 0;
#X connect 1 0 8 0;
#X connect 2 0 1 0;
#X connect 3 0 1 2;
#X connect 3 1 1 1;
#X connect 4 4 5 0;
#X connect 7 0 6 0;
#X connect 8 0 4 0;
#X connect 9 0 3 0;
#X connect 9 0 10 0;
#X connect 10 0 11 0;
#X connect 11 0 13 0;
#X connect 11 1 14 0;
#X connect 12 0 8 1;
#X connect 13 0 12 0;
#X connect 14 0 12 0;
#X restore -49 55 pd indoorPDgraphic;
#X obj -49 27 tgl 15 0 empty empty empty 17 7 0 10 -262144 -1 -1 1
1;
#N canvas 463 299 680 355 holdingtone 1;
#X obj 117 25 adc~;
#X obj 102 170 mtof;
#X obj 106 135 fiddle 2048 1;
#X obj 250 170 t b f;
#X obj 124 59 lop~ 1000;
#X obj 124 81 lop~ 1000;
#X obj 124 103 lop~ 1000;
#X obj 196 59 hip~ 150;
#X obj 196 81 hip~ 150;
#X obj 196 103 hip~ 150;
#X obj 103 258 s tone;
#X obj 177 246 s singing;
#X obj 100 207 expr if($f1>90 && $f1<450 && $f2>$f3 \, 1 \, 0);
#X msg 375 179 87;
#X obj 375 141 loadbang;
#X obj 336 160 r lautstärke;
#X obj 392 218 s anfangslautstärke;
#X connect 0 0 4 0;
#X connect 0 1 4 0;
#X connect 1 0 12 0;
#X connect 2 0 1 0;
#X connect 2 3 3 0;
#X connect 3 0 12 0;
#X connect 3 1 12 1;
#X connect 4 0 5 0;
#X connect 5 0 6 0;
#X connect 6 0 7 0;
#X connect 7 0 8 0;
#X connect 8 0 9 0;
#X connect 9 0 2 0;
#X connect 12 0 10 0;
#X connect 12 0 11 0;
#X connect 13 0 12 2;
#X connect 13 0 16 0;
#X connect 14 0 13 0;
#X connect 15 0 12 2;
#X restore 122 188 pd holdingtone;
#X text -21 147 player 1;
#X text 120 133 player 2;
#N canvas 601 368 450 300 PureUnity 1;
#X obj 330 40 import mrpeach;
#X obj 136 109 pack f f f f;
#X obj 188 197 packOSC;
#X msg 177 156 send /test \$1#\$2#\$3#\$4;
#X obj 186 264 udpsend;
#X msg 265 201 connect localhost 31000;
#X msg 90 194 disconnect;
#X obj 85 142 inlet;
#X obj 268 110 inlet;
#X obj 27 68 r shouting;
#X obj 112 66 r shushing;
#X obj 187 64 r singing;
#X obj 260 64 r whistling;
#X obj 188 236 gate;
#X obj 173 24 inlet;
#X obj 449 21 tgl 15 0 empty empty empty 17 7 0 10 -262144 -1 -1 0
1;
#X connect 1 0 3 0;
#X connect 2 0 13 1;
#X connect 3 0 2 0;
#X connect 5 0 13 1;
#X connect 6 0 13 1;
#X connect 7 0 6 0;
#X connect 8 0 5 0;
#X connect 9 0 1 0;
#X connect 10 0 1 1;
#X connect 11 0 1 2;
#X connect 12 0 1 3;
#X connect 13 0 4 0;
#X connect 14 0 13 0;
#X restore 47 354 pd PureUnity;
#X obj 120 330 bng 15 250 50 0 empty empty empty 17 7 0 10 -262144
-1 -1;
#X obj -14 326 bng 15 250 50 0 empty empty empty 17 7 0 10 -262144
-1 -1;
#X text 1 323 disconnect;
#X text 138 326 connect;
#X obj 309 39 adc~;
#X obj 314 72 env~;
#X obj 315 103 - 100;
#X obj 319 153 vu 15 120 empty empty -1 -8 0 10 -66577 -1 1 0;
#X obj 80 286 tgl 15 0 empty empty empty 17 7 0 10 -262144 -1 -1 0
1;
#X text 99 285 udpsend on/off;
#X obj 153 23 loadbang;
#X msg 153 45 \; pd dsp 1;
#X floatatom 47 194 5 0 0 0 - - -;
#X obj -18 173 r anfang;
#X obj -22 172 hsl 65 20 -5 10 0 0 empty empty empty -2 -8 0 10 -262144
-1 -1 5120 1;
#X obj 92 251 loadbang;
#X obj 124 168 r anfangslautstärke;
#X floatatom 213 187 5 0 0 0 - - -;
#X text 287 338 V. 0.2.3;
#X obj 126 168 s lautstärke;
#X obj 126 167 hsl 120 20 20 100 0 0 empty empty empty -2 -8 0 10 -262144
-1 -1 8500 1;
#X connect 5 0 4 0;
#X connect 10 0 9 2;
#X connect 11 0 9 0;
#X connect 14 0 15 0;
#X connect 14 1 15 0;
#X connect 15 0 16 0;
#X connect 16 0 17 0;
#X connect 18 0 9 1;
#X connect 20 0 21 0;
#X connect 23 0 24 0;
#X connect 24 0 22 0;
#X connect 24 0 3 0;
#X connect 25 0 18 0;
#X connect 25 0 10 0;
#X connect 26 0 30 0;
#X connect 30 0 29 0;
#X connect 30 0 27 0;
