#N canvas 539 22 469 516 10;
#X declare -lib mrpeach;
#N canvas 738 314 495 440 indoorPDgraphic 0;
#X obj -15 24 gemhead;
#X obj -4 212 translateXYZ;
#X obj -15 56 color 1 0 0;
#N canvas 506 363 529 358 control 0;
#X obj 69 59 route 119 115 97 100;
#X text 441 178 w=119 \; s=115 \; a=97 \; d=100;
#X msg -33 173 0.05;
#X obj 25 252 + 0;
#X floatatom 34 290 5 0 0 0 - - -;
#X msg 114 162 0.05;
#X obj 110 190 * -1;
#X msg 216 193 0.05;
#X msg 334 186 0.05;
#X obj 330 214 * -1;
#X obj 223 256 + 0;
#X floatatom 220 288 5 0 0 0 - - -;
#X obj 29 321 outlet;
#X obj 213 322 outlet;
#X text 13 317 Y;
#X text 276 315 X;
#X obj 342 75 loadbang;
#X obj 86 14 key;
#X obj 267 13 inlet;
#X obj 35 103 gate 2;
#X obj 89 104 gate 2;
#X obj 133 104 gate 2;
#X obj 185 106 gate 2;
#X floatatom 244 78 5 0 0 0 - - -;
#X obj 43 203 line;
#X msg 339 102 1;
#X obj 155 194 line;
#X obj 134 218 * -1;
#X obj 261 240 line;
#X obj 375 214 line;
#X obj 358 242 * -1;
#X obj 265 39 > 0;
#X obj 286 67 + 1;
#X msg 53 158 0.05 800;
#X msg 159 157 0.05 800;
#X msg 265 202 0.05 800;
#X msg 376 185 0.05 800;
#X connect 0 0 19 1;
#X connect 0 1 20 1;
#X connect 0 2 21 1;
#X connect 0 3 22 1;
#X connect 2 0 3 0;
#X connect 3 0 4 0;
#X connect 4 0 3 1;
#X connect 4 0 12 0;
#X connect 5 0 6 0;
#X connect 6 0 3 0;
#X connect 7 0 10 0;
#X connect 8 0 9 0;
#X connect 9 0 10 0;
#X connect 10 0 11 0;
#X connect 11 0 10 1;
#X connect 11 0 13 0;
#X connect 16 0 25 0;
#X connect 17 0 0 0;
#X connect 18 0 31 0;
#X connect 19 0 2 0;
#X connect 19 1 33 0;
#X connect 20 0 5 0;
#X connect 20 1 34 0;
#X connect 21 0 8 0;
#X connect 21 1 36 0;
#X connect 22 0 7 0;
#X connect 22 1 35 0;
#X connect 23 0 19 0;
#X connect 23 0 20 0;
#X connect 23 0 21 0;
#X connect 23 0 22 0;
#X connect 24 0 3 0;
#X connect 25 0 4 0;
#X connect 25 0 11 0;
#X connect 26 0 27 0;
#X connect 27 0 3 0;
#X connect 28 0 10 0;
#X connect 29 0 30 0;
#X connect 30 0 10 0;
#X connect 31 0 32 0;
#X connect 32 0 23 0;
#X connect 33 0 24 0;
#X connect 34 0 26 0;
#X connect 35 0 28 0;
#X connect 36 0 29 0;
#X restore 23 145 pd control normal;
#X obj 24 362 gemlist_info;
#X obj 91 396 s info;
#N canvas 569 426 625 315 windowcreation 0;
#X obj 163 259 gemwin;
#X msg 94 107 create;
#X msg 178 105 destroy;
#X obj 199 134 tgl 15 0 empty empty empty 17 7 0 10 -262144 -1 -1 0
1;
#X obj 159 8 inlet;
#X obj 162 33 sel 0 1;
#X msg 239 74 0;
#X msg 195 76 1;
#X obj 88 57 t b b b;
#X obj 38 164 s begin;
#X msg 246 146 border \$1;
#X obj 245 128 tgl 15 1 empty empty empty 0 -6 0 10 -262144 -1 -1 1
1;
#X msg 257 212 color 0.5 0.5 0.5;
#X connect 1 0 0 0;
#X connect 2 0 0 0;
#X connect 3 0 0 0;
#X connect 4 0 5 0;
#X connect 5 0 2 0;
#X connect 5 0 6 0;
#X connect 5 1 8 0;
#X connect 6 0 3 0;
#X connect 7 0 3 0;
#X connect 8 0 9 0;
#X connect 8 1 7 0;
#X connect 8 2 1 0;
#X connect 10 0 0 0;
#X connect 11 0 10 0;
#X connect 12 0 0 0;
#X restore 156 54 pd windowcreation;
#X obj 158 20 inlet;
#X obj 3 331 circle 0.1;
#X obj 46 114 r tone;
#X obj 91 217 > 0;
#X obj 91 245 sel 0 1;
#X obj 69 305 line;
#X msg 67 283 0.1 200;
#X msg 153 283 1 200;
#X connect 0 0 2 0;
#X connect 1 0 8 0;
#X connect 2 0 1 0;
#X connect 3 0 1 2;
#X connect 3 1 1 1;
#X connect 4 4 5 0;
#X connect 7 0 6 0;
#X connect 8 0 4 0;
#X connect 9 0 3 0;
#X connect 9 0 10 0;
#X connect 10 0 11 0;
#X connect 11 0 13 0;
#X connect 11 1 14 0;
#X connect 12 0 8 1;
#X connect 13 0 12 0;
#X connect 14 0 12 0;
#X restore -49 55 pd indoorPDgraphic;
#X obj -49 27 tgl 15 0 empty empty empty 17 7 0 10 -262144 -1 -1 0
1;
#X obj 214 467 bng 15 250 50 0 empty empty empty 17 7 0 10 -262144
-1 -1;
#X obj 84 470 bng 15 250 50 0 empty empty empty 17 7 0 10 -262144 -1
-1;
#X text 99 467 disconnect;
#X text 232 463 connect;
#X obj 150 166 vu 15 120 amp empty -1 -8 0 10 -66577 -1 1 0;
#X obj 162 426 tgl 15 0 empty empty empty 17 7 0 10 -262144 -1 -1 0
1;
#X text 182 425 udpsend on/off;
#X floatatom 64 211 5 0 0 0 - shout -;
#X obj -25 168 hsl 120 40 -80 10 0 0 shout r_shout SHOUTING -2 -8 0
10 -258113 -1 -1 10958 1;
#X obj 162 399 loadbang;
#X floatatom 332 214 5 0 0 0 - longtone -;
#X obj 243 172 hsl 120 40 -80 0 0 1 longtone r_tone HOLD_TONE -2 -8
0 10 -258113 -1 -1 5770 1;
#X floatatom 65 293 5 0 0 0 - whistle -;
#X obj -24 251 hsl 120 40 -80 0 0 0 whistle r_whistle WHISTLE -2 -8
0 10 -258113 -1 -1 5206 1;
#X floatatom 335 294 5 0 0 0 - shush -;
#X obj 244 252 hsl 120 40 -70 0 0 0 shush r_shush SHUSH -2 -8 0 10
-258113 -1 -1 3400 1;
#X floatatom 150 293 5 0 0 0 - amp -;
#X text -3 124 PLAYER 1;
#X text 272 123 PLAYER 2;
#N canvas 0 22 589 356 sound 0;
#X obj 274 152 env~;
#X obj 274 180 - 100;
#X obj 275 207 s amp;
#X obj 301 48 adc~;
#X obj 189 18 loadbang;
#X msg 189 40 \; pd dsp 1;
#X obj 306 129 s~ audioinput;
#X obj 305 86 *~;
#X obj 341 63 hsl 150 20 0 100 0 0 empty empty empty -2 -8 0 10 -262144
-1 -1 149 1;
#X floatatom 338 88 5 0 0 0 - - -;
#X msg 338 38 1;
#X text 374 43 boost the mic \, if you must;
#X obj 95 53 output~;
#N canvas 225 295 613 483 shouting 0;
#X obj -15 24 gemhead;
#X obj -14 154 translateXYZ;
#X obj -15 56 color 1 0 0;
#X obj 14 85 r info;
#X obj 16 112 unpack 0 0 0;
#X obj -21 204 circle 0.1;
#X obj 104 336 sel 1;
#X obj 113 453 line;
#X obj 98 358 t b b b;
#X msg 159 392 3.5;
#X obj 154 136 env~;
#X obj 155 168 - 100;
#X msg 118 397 1000;
#X msg 86 396 0.1;
#X obj 142 228 > 7;
#X obj 201 385 s shouting;
#X obj 214 173 loadbang;
#X obj 213 232 outlet;
#X obj 169 27 r~ audioinput;
#X obj 182 57 lop~ 700;
#X obj 183 78 lop~ 700;
#X obj 185 98 lop~ 700;
#X obj 271 57 hip~ 100;
#X obj 271 79 hip~ 100;
#X obj 271 101 hip~ 100;
#X msg 201 328 0;
#X msg 166 329 1;
#X obj 166 258 sel 1;
#X obj 167 279 t b b;
#X obj 201 304 del 200;
#X msg 214 195 -42.5;
#X obj 274 226 s r_shout;
#X obj 99 184 r shout;
#X connect 0 0 2 0;
#X connect 1 0 5 0;
#X connect 2 0 1 0;
#X connect 3 0 4 0;
#X connect 4 0 1 1;
#X connect 4 1 1 2;
#X connect 6 0 8 0;
#X connect 7 0 5 1;
#X connect 8 0 13 0;
#X connect 8 1 12 0;
#X connect 8 2 9 0;
#X connect 9 0 7 0;
#X connect 10 0 11 0;
#X connect 11 0 14 0;
#X connect 12 0 7 1;
#X connect 13 0 7 0;
#X connect 14 0 6 0;
#X connect 14 0 27 0;
#X connect 16 0 30 0;
#X connect 18 0 19 0;
#X connect 19 0 20 0;
#X connect 20 0 21 0;
#X connect 21 0 22 0;
#X connect 22 0 23 0;
#X connect 23 0 24 0;
#X connect 24 0 10 0;
#X connect 25 0 15 0;
#X connect 26 0 15 0;
#X connect 27 0 28 0;
#X connect 28 0 29 0;
#X connect 28 1 26 0;
#X connect 29 0 25 0;
#X connect 30 0 14 1;
#X connect 30 0 17 0;
#X connect 30 0 31 0;
#X connect 32 0 14 1;
#X restore 1 239 pd shouting;
#N canvas 24 165 770 444 holdingtone 0;
#X obj 339 368 s tone;
#X obj 382 370 s singing;
#N canvas 645 218 635 454 equalvoice 0;
#X obj 45 27 inlet;
#X obj 92 416 outlet;
#X text 300 63 comment;
#X msg 50 367 1;
#X msg 98 365 0;
#X obj 112 136 loadbang;
#X obj 47 129 sel 1 0;
#X obj 29 299 sel 1;
#X obj 168 217 sel 1;
#X obj 139 181 counter 4;
#X obj 48 174 counter 6;
#X connect 0 0 6 0;
#X connect 3 0 1 0;
#X connect 4 0 1 0;
#X connect 5 0 9 2;
#X connect 5 0 10 2;
#X connect 6 0 10 0;
#X connect 6 1 9 0;
#X connect 7 0 3 0;
#X connect 7 0 9 2;
#X connect 8 0 4 0;
#X connect 8 0 10 2;
#X connect 9 2 8 0;
#X connect 10 2 7 0;
#X restore 340 292 pd equalvoice;
#X obj 117 14 r~ audioinput;
#X obj 169 134 unpack;
#X obj 212 159 rmstodb;
#X obj 465 126 unpack;
#X obj 508 151 rmstodb;
#X obj 566 135 unpack;
#X obj 609 160 rmstodb;
#X obj 667 138 unpack;
#X obj 711 158 rmstodb;
#X obj 262 132 unpack;
#X obj 305 157 rmstodb;
#X obj 357 130 unpack;
#X obj 400 155 rmstodb;
#X obj 225 24 fiddle 2048 1 10 10;
#X obj 487 71 route 1 2 3 4 5 6;
#X obj 338 234 expr if($f1>$f2&&$f3>$f2&&$f4>$f2&&$f5>$f2&&$f6>$f2&&$f7>$f2
\, 1 \, 0);
#X obj 396 213 + 100;
#X obj 155 228 loadbang;
#X msg 155 250 -56;
#X obj 155 279 s s_tone;
#X obj 395 190 r longtone;
#X connect 2 0 1 0;
#X connect 2 0 0 0;
#X connect 3 0 16 0;
#X connect 4 1 5 0;
#X connect 5 0 18 0;
#X connect 6 1 7 0;
#X connect 7 0 18 4;
#X connect 8 1 9 0;
#X connect 9 0 18 5;
#X connect 10 1 11 0;
#X connect 11 0 18 6;
#X connect 12 1 13 0;
#X connect 13 0 18 2;
#X connect 14 1 15 0;
#X connect 15 0 18 3;
#X connect 16 4 17 0;
#X connect 17 0 4 0;
#X connect 17 1 12 0;
#X connect 17 2 14 0;
#X connect 17 3 6 0;
#X connect 17 4 8 0;
#X connect 17 5 10 0;
#X connect 18 0 2 0;
#X connect 19 0 18 1;
#X connect 20 0 21 0;
#X connect 21 0 19 0;
#X connect 21 0 22 0;
#X connect 23 0 19 0;
#X restore 132 240 pd holdingtone;
#N canvas 131 349 670 391 whistling 0;
#X obj 78 99 mtof;
#X obj 230 110 t b f;
#X obj 78 75 fiddle~ 2048 1;
#N canvas 184 87 1096 623 boredParticles 0;
#X obj -61 229 gemhead;
#X obj -61 258 color 0 1 0;
#X obj -64 319 translateXYZ 3 1 0;
#X obj 60 229 gemhead;
#X obj 225 231 gemhead;
#X obj 377 230 gemhead;
#X obj 60 258 color 0 0 1;
#X obj 224 260 color 1 1 0;
#X obj 377 258 color 1 1 1;
#X obj -68 465 triangle 0.05;
#X obj 61 464 triangle 0.05;
#X obj 219 476 triangle 0.05;
#X obj 392 470 triangle 0.05;
#X obj 57 370 translateXYZ 2.5 1.3 0;
#X obj 210 370 translateXYZ 2.8 1.7 0;
#X obj 386 367 translateXYZ 2.9 1.1 0;
#X obj 54 187 sel 1 0;
#X obj -33 429 line;
#X msg 2 389 0 250;
#X msg -55 387 0.05 250;
#X obj 136 436 line;
#X msg 171 396 0 250;
#X msg 114 394 0.05 250;
#X obj 304 442 line;
#X msg 339 402 0 250;
#X msg 282 400 0.05 250;
#X obj 450 441 line;
#X msg 485 401 0 250;
#X msg 428 399 0.05 250;
#X obj 579 233 gemhead;
#X obj 559 473 triangle 0.05;
#X obj 617 444 line;
#X msg 652 404 0 250;
#X msg 595 402 0.05 250;
#X obj 553 371 translateXYZ 3.2 0.9 0;
#X obj 579 261 color 0.5 0.7 0.1;
#X obj 700 234 gemhead;
#X obj 715 474 triangle 0.05;
#X obj 773 445 line;
#X msg 808 405 0 250;
#X msg 751 403 0.05 250;
#X obj 710 372 translateXYZ 2 1.06 0;
#X obj 700 262 color 0.3 0.1 0.3;
#X obj 53 147 inlet;
#X connect 0 0 1 0;
#X connect 1 0 2 0;
#X connect 2 0 9 0;
#X connect 3 0 6 0;
#X connect 4 0 7 0;
#X connect 5 0 8 0;
#X connect 6 0 13 0;
#X connect 7 0 14 0;
#X connect 8 0 15 0;
#X connect 13 0 10 0;
#X connect 14 0 11 0;
#X connect 15 0 12 0;
#X connect 16 0 19 0;
#X connect 16 0 22 0;
#X connect 16 0 25 0;
#X connect 16 0 28 0;
#X connect 16 0 33 0;
#X connect 16 0 40 0;
#X connect 16 1 18 0;
#X connect 16 1 21 0;
#X connect 16 1 24 0;
#X connect 16 1 27 0;
#X connect 16 1 32 0;
#X connect 16 1 39 0;
#X connect 17 0 9 1;
#X connect 18 0 17 0;
#X connect 19 0 17 0;
#X connect 20 0 10 1;
#X connect 21 0 20 0;
#X connect 22 0 20 0;
#X connect 23 0 11 1;
#X connect 24 0 23 0;
#X connect 25 0 23 0;
#X connect 26 0 12 1;
#X connect 27 0 26 0;
#X connect 28 0 26 0;
#X connect 29 0 35 0;
#X connect 31 0 30 1;
#X connect 32 0 31 0;
#X connect 33 0 31 0;
#X connect 34 0 30 0;
#X connect 35 0 34 0;
#X connect 36 0 42 0;
#X connect 38 0 37 1;
#X connect 39 0 38 0;
#X connect 40 0 38 0;
#X connect 41 0 37 0;
#X connect 42 0 41 0;
#X connect 43 0 16 0;
#X restore 67 241 pd boredParticles;
#X obj 93 205 s whistling;
#X obj 75 145 expr if($f1 > 750 && $f1 < 4500 && $f2>$f3 \, 1 \, 0)
;
#X obj 377 58 loadbang;
#X obj 73 7 r~ audioinput;
#N canvas 616 240 635 454 equalvoice 0;
#X obj 45 27 inlet;
#X obj 92 416 outlet;
#X text 300 63 comment;
#X msg 50 367 1;
#X msg 98 365 0;
#X obj 112 136 loadbang;
#X obj 47 129 sel 1 0;
#X obj 29 299 sel 1;
#X obj 168 217 sel 1;
#X obj 48 174 counter 4;
#X obj 194 294 print;
#X obj 139 180 counter 10;
#X connect 0 0 6 0;
#X connect 3 0 1 0;
#X connect 4 0 1 0;
#X connect 5 0 9 2;
#X connect 5 0 11 2;
#X connect 6 0 9 0;
#X connect 6 1 11 0;
#X connect 7 0 3 0;
#X connect 8 0 4 0;
#X connect 8 0 9 2;
#X connect 9 2 7 0;
#X connect 11 2 8 0;
#X restore 75 171 pd equalvoice;
#X obj 159 98 - 100;
#X msg 371 114 -45;
#X obj 387 148 s r_whistle;
#X obj 320 84 r whistle;
#X connect 0 0 5 0;
#X connect 1 0 5 0;
#X connect 1 1 5 1;
#X connect 2 0 0 0;
#X connect 2 3 9 0;
#X connect 5 0 8 0;
#X connect 6 0 10 0;
#X connect 7 0 2 0;
#X connect 8 0 4 0;
#X connect 8 0 3 0;
#X connect 9 0 1 0;
#X connect 10 0 5 2;
#X connect 10 0 11 0;
#X connect 12 0 5 2;
#X restore -22 299 pd whistling;
#N canvas 90 405 817 501 shushing 0;
#X obj 14 164 gemhead;
#X obj 14 248 translateXYZ -2 -1 0;
#X obj 14 215 color 0 1 0;
#X msg 77 359 0;
#X obj 122 330 del 2000;
#X obj 14 391 square 0.24;
#X msg 122 374 0.24;
#X text 484 266 1800 - 5400 HZ;
#X obj 213 118 zl nth 1;
#X obj 96 89 fiddle~ 2048 1 20 20;
#X obj 258 150 unpack;
#X obj 291 171 rmstodb;
#X obj 252 299 change;
#X obj 247 344 sel 1;
#X text 475 288 took it to 3500 cause of interference with whistling
;
#X obj 333 359 s shushing;
#X obj 371 146 loadbang;
#X obj 97 57 r~ audioinput;
#X obj 291 191 - 100;
#X msg 369 169 -50;
#X obj 252 240 expr if($f1>3500&&$f1<5400&& $f2<$f3 \, 1 \, 0);
#X obj 384 208 s r_shush;
#X obj 342 110 r shush;
#X connect 0 0 2 0;
#X connect 1 0 5 0;
#X connect 2 0 1 0;
#X connect 3 0 5 1;
#X connect 4 0 6 0;
#X connect 6 0 5 1;
#X connect 8 1 10 0;
#X connect 9 4 8 0;
#X connect 10 0 20 0;
#X connect 10 1 11 0;
#X connect 11 0 18 0;
#X connect 12 0 13 0;
#X connect 13 0 3 0;
#X connect 13 0 4 0;
#X connect 16 0 19 0;
#X connect 17 0 9 0;
#X connect 18 0 20 2;
#X connect 19 0 20 1;
#X connect 19 0 21 0;
#X connect 20 0 12 0;
#X connect 20 0 15 0;
#X connect 22 0 20 1;
#X restore 108 297 pd shushing;
#X connect 0 0 1 0;
#X connect 1 0 2 0;
#X connect 3 0 7 0;
#X connect 3 1 7 0;
#X connect 4 0 5 0;
#X connect 4 0 10 0;
#X connect 7 0 6 0;
#X connect 7 0 0 0;
#X connect 8 0 7 1;
#X connect 8 0 9 0;
#X connect 10 0 8 0;
#X restore 74 55 pd sound;
#N canvas 847 342 450 300 PureVersusUnity 0;
#X obj 330 40 import mrpeach;
#X obj 158 127 pack f f f f;
#X obj 188 197 packOSC;
#X msg 177 156 send /test \$1#\$2#\$3#\$4;
#X obj 186 264 udpsend;
#X msg 265 201 connect localhost 31000;
#X msg 90 194 disconnect;
#X obj 85 142 inlet;
#X obj 268 110 inlet;
#X obj 27 68 r shouting;
#X obj 112 66 r shushing;
#X obj 187 64 r singing;
#X obj 260 64 r whistling;
#X obj 188 236 gate;
#X obj 173 24 inlet;
#X obj 449 21 tgl 15 0 empty empty empty 17 7 0 10 -262144 -1 -1 0
1;
#X obj 136 98 t b f;
#X obj 177 101 t b f;
#X obj 219 98 t b f;
#X connect 1 0 3 0;
#X connect 2 0 13 1;
#X connect 3 0 2 0;
#X connect 5 0 13 1;
#X connect 6 0 13 1;
#X connect 7 0 6 0;
#X connect 8 0 5 0;
#X connect 9 0 1 0;
#X connect 10 0 16 0;
#X connect 11 0 17 0;
#X connect 12 0 18 0;
#X connect 13 0 4 0;
#X connect 14 0 13 0;
#X connect 16 0 1 0;
#X connect 16 1 1 1;
#X connect 17 0 1 0;
#X connect 17 1 1 2;
#X connect 18 0 1 0;
#X connect 18 1 1 3;
#X restore 111 484 pd PureVersusUnity;
#X text 95 344 V. 0.3.0 (c) Lemming Enterprises;
#X connect 1 0 0 0;
#X connect 2 0 22 2;
#X connect 3 0 22 0;
#X connect 7 0 22 1;
#X connect 11 0 7 0;
#X connect 11 0 2 0;
