#N canvas 432 49 717 610 10;
#X declare -lib mrpeach;
#X obj 85 43 output~;
#N canvas 86 409 670 391 whistling 0;
#X obj 78 99 mtof;
#X obj 230 110 t b f;
#X obj 78 75 fiddle~ 2048 1;
#N canvas 184 87 1096 623 boredParticles 0;
#X obj -61 229 gemhead;
#X obj -61 258 color 0 1 0;
#X obj -64 319 translateXYZ 3 1 0;
#X obj 60 229 gemhead;
#X obj 225 231 gemhead;
#X obj 377 230 gemhead;
#X obj 60 258 color 0 0 1;
#X obj 224 260 color 1 1 0;
#X obj 377 258 color 1 1 1;
#X obj -68 465 triangle 0.05;
#X obj 61 464 triangle 0.05;
#X obj 219 476 triangle 0.05;
#X obj 392 470 triangle 0.05;
#X obj 57 370 translateXYZ 2.5 1.3 0;
#X obj 210 370 translateXYZ 2.8 1.7 0;
#X obj 386 367 translateXYZ 2.9 1.1 0;
#X obj 54 187 sel 1 0;
#X obj -33 429 line;
#X msg 2 389 0 250;
#X msg -55 387 0.05 250;
#X obj 136 436 line;
#X msg 171 396 0 250;
#X msg 114 394 0.05 250;
#X obj 304 442 line;
#X msg 339 402 0 250;
#X msg 282 400 0.05 250;
#X obj 450 441 line;
#X msg 485 401 0 250;
#X msg 428 399 0.05 250;
#X obj 579 233 gemhead;
#X obj 559 473 triangle 0.05;
#X obj 617 444 line;
#X msg 652 404 0 250;
#X msg 595 402 0.05 250;
#X obj 553 371 translateXYZ 3.2 0.9 0;
#X obj 579 261 color 0.5 0.7 0.1;
#X obj 700 234 gemhead;
#X obj 715 474 triangle 0.05;
#X obj 773 445 line;
#X msg 808 405 0 250;
#X msg 751 403 0.05 250;
#X obj 710 372 translateXYZ 2 1.06 0;
#X obj 700 262 color 0.3 0.1 0.3;
#X obj 53 147 inlet;
#X connect 0 0 1 0;
#X connect 1 0 2 0;
#X connect 2 0 9 0;
#X connect 3 0 6 0;
#X connect 4 0 7 0;
#X connect 5 0 8 0;
#X connect 6 0 13 0;
#X connect 7 0 14 0;
#X connect 8 0 15 0;
#X connect 13 0 10 0;
#X connect 14 0 11 0;
#X connect 15 0 12 0;
#X connect 16 0 19 0;
#X connect 16 0 22 0;
#X connect 16 0 25 0;
#X connect 16 0 28 0;
#X connect 16 0 33 0;
#X connect 16 0 40 0;
#X connect 16 1 18 0;
#X connect 16 1 21 0;
#X connect 16 1 24 0;
#X connect 16 1 27 0;
#X connect 16 1 32 0;
#X connect 16 1 39 0;
#X connect 17 0 9 1;
#X connect 18 0 17 0;
#X connect 19 0 17 0;
#X connect 20 0 10 1;
#X connect 21 0 20 0;
#X connect 22 0 20 0;
#X connect 23 0 11 1;
#X connect 24 0 23 0;
#X connect 25 0 23 0;
#X connect 26 0 12 1;
#X connect 27 0 26 0;
#X connect 28 0 26 0;
#X connect 29 0 35 0;
#X connect 31 0 30 1;
#X connect 32 0 31 0;
#X connect 33 0 31 0;
#X connect 34 0 30 0;
#X connect 35 0 34 0;
#X connect 36 0 42 0;
#X connect 38 0 37 1;
#X connect 39 0 38 0;
#X connect 40 0 38 0;
#X connect 41 0 37 0;
#X connect 42 0 41 0;
#X connect 43 0 16 0;
#X restore 67 241 pd boredParticles;
#X obj 93 205 s whistling;
#X obj 75 145 expr if($f1 > 750 && $f1 < 4500 && $f2>$f3 \, 1 \, 0)
;
#X obj 320 85 r lautstärkew;
#X obj 377 58 loadbang;
#X obj 387 148 s alautstärkew;
#X obj 73 7 r~ audioinput;
#N canvas 616 240 635 454 equalvoice 0;
#X obj 45 27 inlet;
#X obj 92 416 outlet;
#X text 300 63 comment;
#X msg 50 367 1;
#X msg 98 365 0;
#X obj 112 136 loadbang;
#X obj 47 129 sel 1 0;
#X obj 29 299 sel 1;
#X obj 168 217 sel 1;
#X obj 48 174 counter 4;
#X obj 194 294 print;
#X obj 139 180 counter 10;
#X connect 0 0 6 0;
#X connect 3 0 1 0;
#X connect 4 0 1 0;
#X connect 5 0 9 2;
#X connect 5 0 11 2;
#X connect 6 0 9 0;
#X connect 6 1 11 0;
#X connect 7 0 3 0;
#X connect 8 0 4 0;
#X connect 8 0 9 2;
#X connect 9 2 7 0;
#X connect 11 2 8 0;
#X restore 75 171 pd equalvoice;
#X obj 159 98 - 100;
#X msg 371 114 -30.5;
#X connect 0 0 5 0;
#X connect 1 0 5 0;
#X connect 1 1 5 1;
#X connect 2 0 0 0;
#X connect 2 3 11 0;
#X connect 5 0 10 0;
#X connect 6 0 5 2;
#X connect 7 0 12 0;
#X connect 9 0 2 0;
#X connect 10 0 4 0;
#X connect 10 0 3 0;
#X connect 11 0 1 0;
#X connect 12 0 5 2;
#X connect 12 0 8 0;
#X restore -27 261 pd whistling;
#N canvas 91 199 817 501 shushing 0;
#X obj 14 164 gemhead;
#X obj 14 248 translateXYZ -2 -1 0;
#X obj 14 215 color 0 1 0;
#X msg 77 359 0;
#X obj 122 330 del 2000;
#X obj 14 391 square 0.24;
#X msg 122 374 0.24;
#X text 462 240 1800 - 5400 HZ;
#X obj 213 118 zl nth 1;
#X obj 96 89 fiddle~ 2048 1 20 20;
#X obj 258 150 unpack;
#X obj 291 171 rmstodb;
#X obj 252 215 gate;
#X obj 252 299 change;
#X obj 247 344 sel 1;
#X obj 252 240 expr if($f1>3500&&$f1<5400 \, 1 \, 0);
#X text 467 260 took it to 3500 cause of interference with whistling
;
#X obj 333 359 s shushing;
#X obj 371 146 loadbang;
#X obj 369 213 s AlautstärkeS;
#X obj 342 111 r lautstärkeS;
#X obj 97 57 r~ audioinput;
#X obj 291 191 - 100;
#X obj 291 215 > -30;
#X msg 369 169 -30;
#X connect 0 0 2 0;
#X connect 1 0 5 0;
#X connect 2 0 1 0;
#X connect 3 0 5 1;
#X connect 4 0 6 0;
#X connect 6 0 5 1;
#X connect 8 1 10 0;
#X connect 9 4 8 0;
#X connect 10 0 12 1;
#X connect 10 1 11 0;
#X connect 11 0 22 0;
#X connect 12 0 15 0;
#X connect 13 0 14 0;
#X connect 14 0 3 0;
#X connect 14 0 4 0;
#X connect 15 0 13 0;
#X connect 15 0 17 0;
#X connect 18 0 24 0;
#X connect 20 0 23 1;
#X connect 21 0 9 0;
#X connect 22 0 23 0;
#X connect 23 0 12 0;
#X connect 24 0 19 0;
#X connect 24 0 23 1;
#X restore 124 258 pd shushing;
#N canvas 579 204 613 483 shouting 0;
#X obj -15 24 gemhead;
#X obj -14 154 translateXYZ;
#X obj -15 56 color 1 0 0;
#X obj 14 85 r info;
#X obj 16 112 unpack 0 0 0;
#X obj -21 204 circle 0.1;
#X obj 104 336 sel 1;
#X obj 113 453 line;
#X obj 98 358 t b b b;
#X msg 159 392 3.5;
#X obj 154 136 env~;
#X obj 155 168 - 100;
#X msg 118 397 1000;
#X msg 86 396 0.1;
#X obj 142 228 > 7;
#X obj 195 347 s shouting;
#X obj 214 173 loadbang;
#X obj 213 232 outlet;
#X obj 107 51 inlet;
#X obj 274 226 s anfang;
#X obj 169 27 r~ audioinput;
#X obj 182 57 lop~ 700;
#X obj 183 78 lop~ 700;
#X obj 185 98 lop~ 700;
#X obj 271 57 hip~ 100;
#X obj 271 79 hip~ 100;
#X obj 271 101 hip~ 100;
#X msg 214 195 -12.8;
#X obj 196 286 del 750;
#X obj 166 258 sel 1 0;
#X msg 212 313 0;
#X msg 175 313 1;
#X connect 0 0 2 0;
#X connect 1 0 5 0;
#X connect 2 0 1 0;
#X connect 3 0 4 0;
#X connect 4 0 1 1;
#X connect 4 1 1 2;
#X connect 6 0 8 0;
#X connect 7 0 5 1;
#X connect 8 0 13 0;
#X connect 8 1 12 0;
#X connect 8 2 9 0;
#X connect 9 0 7 0;
#X connect 10 0 11 0;
#X connect 11 0 14 0;
#X connect 12 0 7 1;
#X connect 13 0 7 0;
#X connect 14 0 6 0;
#X connect 14 0 29 0;
#X connect 16 0 27 0;
#X connect 18 0 14 1;
#X connect 20 0 21 0;
#X connect 21 0 22 0;
#X connect 22 0 23 0;
#X connect 23 0 24 0;
#X connect 24 0 25 0;
#X connect 25 0 26 0;
#X connect 26 0 10 0;
#X connect 27 0 14 1;
#X connect 27 0 17 0;
#X connect 27 0 19 0;
#X connect 28 0 30 0;
#X connect 29 0 31 0;
#X connect 29 1 28 0;
#X connect 30 0 15 0;
#X connect 31 0 15 0;
#X restore -25 194 pd shouting;
#N canvas 550 87 495 440 indoorPDgraphic 0;
#X obj -15 24 gemhead;
#X obj -4 212 translateXYZ;
#X obj -15 56 color 1 0 0;
#N canvas 506 363 529 358 control 0;
#X obj 69 59 route 119 115 97 100;
#X text 441 178 w=119 \; s=115 \; a=97 \; d=100;
#X msg -33 173 0.05;
#X obj 25 252 + 0;
#X floatatom 34 290 5 0 0 0 - - -;
#X msg 114 162 0.05;
#X obj 110 190 * -1;
#X msg 216 193 0.05;
#X msg 334 186 0.05;
#X obj 330 214 * -1;
#X obj 223 256 + 0;
#X floatatom 220 288 5 0 0 0 - - -;
#X obj 29 321 outlet;
#X obj 213 322 outlet;
#X text 13 317 Y;
#X text 276 315 X;
#X obj 342 75 loadbang;
#X obj 86 14 key;
#X obj 267 13 inlet;
#X obj 35 103 gate 2;
#X obj 89 104 gate 2;
#X obj 133 104 gate 2;
#X obj 185 106 gate 2;
#X floatatom 244 78 5 0 0 0 - - -;
#X obj 43 203 line;
#X msg 339 102 1;
#X obj 155 194 line;
#X obj 134 218 * -1;
#X obj 261 240 line;
#X obj 375 214 line;
#X obj 358 242 * -1;
#X obj 265 39 > 0;
#X obj 286 67 + 1;
#X msg 53 158 0.05 800;
#X msg 159 157 0.05 800;
#X msg 265 202 0.05 800;
#X msg 376 185 0.05 800;
#X connect 0 0 19 1;
#X connect 0 1 20 1;
#X connect 0 2 21 1;
#X connect 0 3 22 1;
#X connect 2 0 3 0;
#X connect 3 0 4 0;
#X connect 4 0 3 1;
#X connect 4 0 12 0;
#X connect 5 0 6 0;
#X connect 6 0 3 0;
#X connect 7 0 10 0;
#X connect 8 0 9 0;
#X connect 9 0 10 0;
#X connect 10 0 11 0;
#X connect 11 0 10 1;
#X connect 11 0 13 0;
#X connect 16 0 25 0;
#X connect 17 0 0 0;
#X connect 18 0 31 0;
#X connect 19 0 2 0;
#X connect 19 1 33 0;
#X connect 20 0 5 0;
#X connect 20 1 34 0;
#X connect 21 0 8 0;
#X connect 21 1 36 0;
#X connect 22 0 7 0;
#X connect 22 1 35 0;
#X connect 23 0 19 0;
#X connect 23 0 20 0;
#X connect 23 0 21 0;
#X connect 23 0 22 0;
#X connect 24 0 3 0;
#X connect 25 0 4 0;
#X connect 25 0 11 0;
#X connect 26 0 27 0;
#X connect 27 0 3 0;
#X connect 28 0 10 0;
#X connect 29 0 30 0;
#X connect 30 0 10 0;
#X connect 31 0 32 0;
#X connect 32 0 23 0;
#X connect 33 0 24 0;
#X connect 34 0 26 0;
#X connect 35 0 28 0;
#X connect 36 0 29 0;
#X restore 23 145 pd control normal;
#X obj 24 362 gemlist_info;
#X obj 91 396 s info;
#N canvas 569 426 625 315 windowcreation 0;
#X obj 163 259 gemwin;
#X msg 94 107 create;
#X msg 178 105 destroy;
#X obj 199 134 tgl 15 0 empty empty empty 17 7 0 10 -262144 -1 -1 0
1;
#X obj 159 8 inlet;
#X obj 162 33 sel 0 1;
#X msg 239 74 0;
#X msg 195 76 1;
#X obj 88 57 t b b b;
#X obj 38 164 s begin;
#X msg 246 146 border \$1;
#X obj 245 128 tgl 15 1 empty empty empty 0 -6 0 10 -262144 -1 -1 1
1;
#X msg 257 212 color 0.5 0.5 0.5;
#X connect 1 0 0 0;
#X connect 2 0 0 0;
#X connect 3 0 0 0;
#X connect 4 0 5 0;
#X connect 5 0 2 0;
#X connect 5 0 6 0;
#X connect 5 1 8 0;
#X connect 6 0 3 0;
#X connect 7 0 3 0;
#X connect 8 0 9 0;
#X connect 8 1 7 0;
#X connect 8 2 1 0;
#X connect 10 0 0 0;
#X connect 11 0 10 0;
#X connect 12 0 0 0;
#X restore 156 54 pd windowcreation;
#X obj 158 20 inlet;
#X obj 3 331 circle 0.1;
#X obj 46 114 r tone;
#X obj 91 217 > 0;
#X obj 91 245 sel 0 1;
#X obj 69 305 line;
#X msg 67 283 0.1 200;
#X msg 153 283 1 200;
#X connect 0 0 2 0;
#X connect 1 0 8 0;
#X connect 2 0 1 0;
#X connect 3 0 1 2;
#X connect 3 1 1 1;
#X connect 4 4 5 0;
#X connect 7 0 6 0;
#X connect 8 0 4 0;
#X connect 9 0 3 0;
#X connect 9 0 10 0;
#X connect 10 0 11 0;
#X connect 11 0 13 0;
#X connect 11 1 14 0;
#X connect 12 0 8 1;
#X connect 13 0 12 0;
#X connect 14 0 12 0;
#X restore -49 55 pd indoorPDgraphic;
#X obj -49 27 tgl 15 0 empty empty empty 17 7 0 10 -262144 -1 -1 0
1;
#N canvas 15 370 559 382 holdingtone 0;
#X obj 106 169 mtof;
#X obj 106 135 fiddle 2048 1;
#X obj 180 182 t b f;
#X obj 124 59 lop~ 1000;
#X obj 124 81 lop~ 1000;
#X obj 124 103 lop~ 1000;
#X obj 99 319 s tone;
#X obj 206 281 s singing;
#X obj 375 141 loadbang;
#X obj 336 160 r lautstärke;
#X obj 424 239 s anfangslautstärke;
#X obj 196 59 hip~ 90;
#X obj 196 81 hip~ 90;
#X obj 196 103 hip~ 90;
#X obj 100 207 expr if($f1>90 && $f1<450 && $f2>$f3 \, 1 \, 0);
#N canvas 996 218 635 454 equalvoice 0;
#X obj 45 27 inlet;
#X obj 92 416 outlet;
#X text 300 63 comment;
#X msg 50 367 1;
#X msg 98 365 0;
#X obj 112 136 loadbang;
#X obj 47 129 sel 1 0;
#X obj 29 299 sel 1;
#X obj 168 217 sel 1;
#X obj 139 181 counter 1;
#X obj 48 174 counter 8;
#X connect 0 0 6 0;
#X connect 3 0 1 0;
#X connect 4 0 1 0;
#X connect 5 0 9 2;
#X connect 5 0 10 2;
#X connect 6 0 10 0;
#X connect 6 1 9 0;
#X connect 7 0 3 0;
#X connect 8 0 4 0;
#X connect 8 0 10 2;
#X connect 9 2 8 0;
#X connect 10 2 7 0;
#X restore 100 242 pd equalvoice;
#X obj 117 25 r~ audioinput;
#X obj 180 159 - 100;
#X msg 375 180 -21;
#X connect 0 0 14 0;
#X connect 1 0 0 0;
#X connect 1 3 17 0;
#X connect 2 0 14 0;
#X connect 2 1 14 1;
#X connect 3 0 4 0;
#X connect 4 0 5 0;
#X connect 5 0 11 0;
#X connect 8 0 18 0;
#X connect 9 0 14 2;
#X connect 11 0 12 0;
#X connect 12 0 13 0;
#X connect 13 0 1 0;
#X connect 14 0 15 0;
#X connect 15 0 7 0;
#X connect 15 0 6 0;
#X connect 16 0 3 0;
#X connect 17 0 2 0;
#X connect 18 0 10 0;
#X connect 18 0 14 2;
#X restore 122 194 pd holdingtone;
#X text -21 147 player 1;
#X text 119 145 player 2;
#N canvas 601 368 450 300 PureUnity 0;
#X obj 330 40 import mrpeach;
#X obj 136 109 pack f f f f;
#X obj 188 197 packOSC;
#X msg 177 156 send /test \$1#\$2#\$3#\$4;
#X obj 186 264 udpsend;
#X msg 265 201 connect localhost 31000;
#X msg 90 194 disconnect;
#X obj 85 142 inlet;
#X obj 268 110 inlet;
#X obj 27 68 r shouting;
#X obj 112 66 r shushing;
#X obj 187 64 r singing;
#X obj 260 64 r whistling;
#X obj 188 236 gate;
#X obj 173 24 inlet;
#X obj 449 21 tgl 15 0 empty empty empty 17 7 0 10 -262144 -1 -1 0
1;
#X connect 1 0 3 0;
#X connect 2 0 13 1;
#X connect 3 0 2 0;
#X connect 5 0 13 1;
#X connect 6 0 13 1;
#X connect 7 0 6 0;
#X connect 8 0 5 0;
#X connect 9 0 1 0;
#X connect 10 0 1 1;
#X connect 11 0 1 2;
#X connect 12 0 1 3;
#X connect 13 0 4 0;
#X connect 14 0 13 0;
#X restore 97 490 pd PureUnity;
#X obj 170 466 bng 15 250 50 0 empty empty empty 17 7 0 10 -262144
-1 -1;
#X obj 36 462 bng 15 250 50 0 empty empty empty 17 7 0 10 -262144 -1
-1;
#X text 51 459 disconnect;
#X text 188 462 connect;
#X obj 291 38 adc~;
#X obj 338 263 env~;
#X obj 299 296 - 100;
#X obj 300 360 vu 15 120 empty empty -1 -8 0 10 -66577 -1 1 0;
#X obj 130 422 tgl 15 0 empty empty empty 17 7 0 10 -262144 -1 -1 1
1;
#X text 149 421 udpsend on/off;
#X obj 153 23 loadbang;
#X msg 153 45 \; pd dsp 1;
#X floatatom 47 194 5 0 0 0 - - -;
#X obj -18 173 r anfang;
#X obj -22 172 hsl 65 20 -30 10 0 0 empty empty empty -2 -8 0 10 -262144
-1 -1 2752 1;
#X obj 142 387 loadbang;
#X obj 124 174 r anfangslautstärke;
#X floatatom 213 193 5 0 0 0 - - -;
#X obj 126 174 s lautstärke;
#X obj 126 173 hsl 120 20 -80 0 0 0 empty empty empty -2 -8 0 10 -262144
-1 -1 8776 1;
#X floatatom 53 262 5 0 0 0 - - -;
#X obj -24 236 s lautstärkew;
#X obj -25 236 r alautstärkew;
#X obj -24 233 hsl 120 20 -80 0 0 0 empty empty empty -2 -8 0 10 -262144
-1 -1 7363 1;
#X obj 129 236 s lautstärkeS;
#X floatatom 200 259 5 0 0 0 - - -;
#X obj 128 236 r AlautstärkeS;
#X obj 128 235 hsl 120 20 -70 0 0 0 empty empty empty -2 -8 0 10 -262144
-1 -1 6800 1;
#X obj 278 123 s~ audioinput;
#X obj 337 229 r~ audioinput;
#X floatatom 289 265 5 0 0 0 - - -;
#X obj 462 271 dbtorms;
#X floatatom 478 304 5 0 0 0 - - -;
#X obj 295 76 *~;
#X obj 371 48 hsl 150 20 0 100 0 0 empty empty empty -2 -8 0 10 -262144
-1 -1 149 1;
#X floatatom 368 73 5 0 0 0 - - -;
#X msg 368 23 1;
#X text 441 438 V. 0.2.8;
#X obj 346 292 expr 100/$f1;
#X obj 671 133 table MIC;
#X obj 669 107 tabwrite~ MIC;
#X obj 669 57 metro 100;
#X obj 669 30 tgl 15 0 empty empty empty 17 7 0 10 -262144 -1 -1 0
1;
#X obj 675 85 r~ audioinput;
#N canvas 0 413 450 300 LIMITTHINGS 0;
#X obj 152 45 inlet~;
#X obj 148 191 limiter~;
#X obj 96 209 *~;
#X obj 115 80 z~ 64;
#X obj 94 266 outlet~;
#X obj 205 8 loadbang;
#X msg 226 171 set 100 10 20;
#X msg 204 53 COMPRESS;
#X msg 229 142 ratio 0.5;
#X obj 210 28 t b b;
#X msg 226 80 limit 110;
#X msg 226 102 treshold 100;
#X connect 0 0 3 0;
#X connect 0 0 1 0;
#X connect 1 0 2 1;
#X connect 2 0 4 0;
#X connect 3 0 2 0;
#X connect 5 0 9 0;
#X connect 6 0 1 0;
#X connect 7 0 1 0;
#X connect 8 0 1 0;
#X connect 9 0 10 0;
#X connect 9 0 11 0;
#X connect 9 0 8 0;
#X connect 9 1 7 0;
#X connect 10 0 1 0;
#X connect 11 0 1 0;
#X restore 177 104 pd LIMITTHINGS;
#X floatatom 381 354 5 0 0 0 - - -;
#X connect 5 0 4 0;
#X connect 10 0 9 2;
#X connect 11 0 9 0;
#X connect 14 0 43 0;
#X connect 14 1 43 0;
#X connect 15 0 16 0;
#X connect 15 0 40 0;
#X connect 15 0 41 0;
#X connect 15 0 48 0;
#X connect 16 0 17 0;
#X connect 16 0 55 0;
#X connect 18 0 9 1;
#X connect 20 0 21 0;
#X connect 20 0 46 0;
#X connect 23 0 24 0;
#X connect 24 0 22 0;
#X connect 24 0 3 0;
#X connect 25 0 18 0;
#X connect 25 0 10 0;
#X connect 26 0 29 0;
#X connect 29 0 28 0;
#X connect 29 0 27 0;
#X connect 32 0 33 0;
#X connect 33 0 30 0;
#X connect 33 0 31 0;
#X connect 36 0 37 0;
#X connect 37 0 34 0;
#X connect 37 0 35 0;
#X connect 39 0 15 0;
#X connect 41 0 42 0;
#X connect 43 0 38 0;
#X connect 44 0 43 1;
#X connect 44 0 45 0;
#X connect 46 0 44 0;
#X connect 51 0 50 0;
#X connect 52 0 51 0;
#X connect 53 0 50 0;
